HIERARCHY
ROOT hip
{
	OFFSET 0.000000 0.000000 0.000000 
	CHANNELS 6 Xposition Yposition Zposition Zrotation Xrotation Yrotation
	JOINT abdomen
	{
		OFFSET 0.000000 3.402643 0.000000 
		CHANNELS 3 Zrotation Xrotation Yrotation
		JOINT chest
		{
			OFFSET 0.000000 8.438565 -0.680529 
			CHANNELS 3 Zrotation Xrotation Yrotation
			JOINT neck
			{
				OFFSET 0.000000 10.207942 -0.272212 
				CHANNELS 3 Zrotation Xrotation Yrotation
				JOINT head
				{
					OFFSET 0.000000 3.130431 0.000000 
					CHANNELS 3 Zrotation Xrotation Yrotation
					End Site
					{
						OFFSET 0.000000 3.130435 0.000000 
					}
				}
			}
			JOINT lCollar
			{
				OFFSET 3.470700 6.669187 -0.816635 
				CHANNELS 3 Zrotation Xrotation Yrotation
				JOINT lShldr
				{
					OFFSET 3.198488 0.000000 0.000000 
					CHANNELS 3 Zrotation Xrotation Yrotation
					JOINT lForeArm
					{
						OFFSET 10.139888 0.000000 0.000000 
						CHANNELS 3 Zrotation Xrotation Yrotation
						JOINT lHand
						{
							OFFSET 8.370511 0.000000 0.000000 
							CHANNELS 3 Zrotation Xrotation Yrotation
							End Site
							{
								OFFSET 4.083176 0.000000 0.000000 
							}
						}
					}
				}
			}
			JOINT rCollar
			{
				OFFSET -3.470700 6.669187 -0.816635 
				CHANNELS 3 Zrotation Xrotation Yrotation
				JOINT rShldr
				{
					OFFSET -3.198488 0.000000 0.000000 
					CHANNELS 3 Zrotation Xrotation Yrotation
					JOINT rForeArm
					{
						OFFSET -10.139888 0.000000 0.000000 
						CHANNELS 3 Zrotation Xrotation Yrotation
						JOINT rHand
						{
							OFFSET -8.370511 0.000000 0.000000 
							CHANNELS 3 Zrotation Xrotation Yrotation
							End Site
							{
								OFFSET -4.083176 0.000000 0.000000 
							}
						}
					}
				}
			}
		}
	}
	JOINT lThigh
	{
		OFFSET 5.308129 -1.633274 1.361059 
		CHANNELS 3 Zrotation Xrotation Yrotation
		JOINT lShin
		{
			OFFSET -2.041588 -20.007561 0.000000 
			CHANNELS 3 Zrotation Xrotation Yrotation
			JOINT lFoot
			{
				OFFSET 0.000000 -19.190928 -1.224953 
				CHANNELS 3 Zrotation Xrotation Yrotation
				End Site
				{
					OFFSET 0.000000 -2.449906 4.627600 
				}
			}
		}
	}
	JOINT rThigh
	{
		OFFSET -5.308129 -1.633274 1.361059 
		CHANNELS 3 Zrotation Xrotation Yrotation
		JOINT rShin
		{
			OFFSET 2.041588 -20.007561 0.000000 
			CHANNELS 3 Zrotation Xrotation Yrotation
			JOINT rFoot
			{
				OFFSET 0.000000 -19.190928 -1.224953 
				CHANNELS 3 Zrotation Xrotation Yrotation
				End Site
				{
					OFFSET 0.000000 -2.449906 4.627600 
				}
			}
		}
	}
}
MOTION
Frames: 17
Frame Time: 0.033333
0.780039 48.223904 0.304557 -0.000000 -0.000010 -0.000000 0.078127 0.380859 -0.020037 -0.019531 -0.263675 -0.117277 -1.368572 -2.577395 0.192351 -1.025568 -1.064281 -0.019051 3.697836 0.663436 0.292382 -82.970695 15.734405 10.484965 -8.656746 3.607834 -19.102551 8.010324 -1.594195 -3.516037 -4.193685 0.633582 -0.516223 82.290688 15.523273 -6.670141 5.951238 2.390889 10.746497 -2.609344 -1.498634 8.795723 2.243875 -5.816423 0.475164 -2.639012 11.632552 -0.215543 0.014277 -6.225685 0.804395 -5.276412 -5.896647 -0.996209 2.552718 11.854550 0.132060 2.113105 -6.366091 -1.162983 
1.542365 48.409706 0.232961 -0.000000 -0.000010 -0.000000 0.136729 0.742187 -0.040810 -0.039065 -0.595702 -0.234787 -3.042686 -5.753655 0.289869 -2.218635 -2.332237 -0.080564 13.075023 1.053534 -1.731809 -92.894539 15.802197 10.275113 -8.641384 3.602134 -19.053541 9.150395 -3.524842 -3.626094 -12.906813 1.080656 1.218760 90.071152 15.502625 -4.895308 4.939944 2.162548 7.619395 0.212114 -3.279114 11.227789 1.184918 -4.936710 0.283235 -2.442456 9.367291 -0.259587 0.514940 -4.886436 1.141187 -6.141169 -4.938584 -1.015066 2.395591 9.444863 0.109202 3.136987 -4.902374 -1.009690 
1.813491 48.355633 -0.018693 -0.000000 -0.000010 -0.000000 0.136735 0.878902 -0.060691 -0.068368 -0.917969 -0.274533 -4.463182 -8.499919 0.236684 -3.140213 -3.373846 -0.156225 16.897141 1.065029 -3.309771 -96.821060 16.002485 9.258214 -8.556775 3.552711 -18.873281 7.422590 -5.312222 -3.443671 -13.071437 1.341019 2.569820 88.803635 16.016212 -8.628342 8.600166 3.604931 19.070570 -0.961672 -5.002045 4.656611 0.841695 -5.295302 0.373167 -2.432112 9.428810 -0.310297 0.857514 -4.569809 1.105068 -6.495930 -5.283116 -0.831830 2.405263 9.480493 -0.125067 3.545734 -4.550704 -1.007947 
1.732089 47.952522 -0.118945 -0.000000 -0.000010 -0.000000 0.224649 1.083976 -0.043274 -0.039067 -0.849604 -0.332616 -4.281199 -8.112371 0.224832 -3.159559 -3.305527 -0.172599 16.186541 1.236074 -3.143875 -96.156593 16.034613 8.720673 -8.601151 3.555326 -18.353035 7.282939 -5.216207 -3.498536 -9.016058 1.586832 2.576743 84.530647 16.142221 -8.165806 9.153560 3.978422 20.208761 -1.951259 -5.151824 3.059283 1.113424 -8.002779 0.359028 -3.195707 15.072784 -0.135369 1.362291 -7.535142 1.353848 -6.724635 -8.256820 -0.793763 2.869257 15.658949 -0.265571 3.287063 -7.919231 -0.909276 
1.515417 47.418217 -0.063962 -0.000000 -0.000010 -0.000000 0.371222 1.503875 -0.009680 0.000000 -0.390622 -0.439453 -2.853588 -5.208417 0.180195 -2.541240 -2.370715 -0.154448 12.551022 1.338426 -1.888255 -92.876709 15.949442 8.178182 -7.985508 3.288787 -17.160452 8.987683 -4.105215 -4.542891 -3.794041 1.535905 1.588957 80.101166 16.002411 -5.171619 7.043729 2.883215 14.182716 -2.549690 -4.070321 6.188147 1.661384 -11.219191 0.835775 -3.655543 21.997965 -0.255927 1.334648 -11.142561 1.303823 -6.770977 -11.418057 -1.195323 3.306659 22.466494 0.003846 2.840848 -11.442187 -0.908328 
1.324751 46.994831 0.049126 -0.000000 -0.000010 -0.000000 0.478865 2.187425 -0.018278 -0.029297 0.292970 -0.634616 -0.957258 -1.249829 -0.108773 -1.719074 -1.112780 -0.179879 7.207994 1.019064 -0.581406 -88.419464 15.888502 6.824386 -5.895081 2.570455 -15.066101 11.364466 -3.270153 -7.067298 0.990060 1.108936 0.312509 76.450287 15.984640 -4.195701 4.742966 2.191987 11.309981 -4.290176 -2.583771 9.499867 2.074423 -13.139487 1.035740 -4.078181 26.383177 -0.236064 1.477712 -13.694238 1.358090 -6.722700 -13.324540 -1.212687 3.838444 26.764933 -0.070887 2.297406 -13.788713 -1.043564 
1.178500 46.703354 0.190505 -0.000000 -0.000010 -0.000000 0.586767 3.046713 -0.040854 -0.117210 1.103518 -0.886415 1.163960 3.231751 -0.758788 -0.820323 0.283174 -0.240086 0.983394 0.274414 0.624922 -83.350586 15.842605 4.964410 -2.799345 1.801247 -12.435043 13.943956 -2.789379 -10.737031 5.143941 0.367989 -1.001844 73.438789 16.142771 -5.399014 2.966962 1.625003 12.413051 -7.114577 -0.917492 12.195997 2.398720 -14.352403 1.176926 -4.312048 29.285891 -0.139382 1.410210 -15.331841 1.339883 -6.653293 -14.394659 -1.906921 3.796731 29.455183 0.108840 1.997760 -15.481938 -0.625873 
1.059350 46.509449 0.347187 -0.000000 -0.000010 -0.000000 0.695022 3.964553 -0.077353 -0.224742 1.972643 -1.183709 3.440864 7.896073 -1.800797 0.117242 1.738278 -0.355099 -5.417010 -0.803832 1.788962 -77.996727 15.787319 3.186733 0.403314 1.274379 -9.883491 16.317198 -2.383069 -14.948625 8.831596 -0.584069 -2.248423 70.746124 16.346777 -7.878998 1.862319 0.990181 15.870152 -10.566672 0.779544 14.433002 2.625834 -14.909828 1.233354 -4.446146 30.888508 -0.062097 1.282895 -16.298319 1.229464 -6.570193 -14.997330 -1.334212 4.027952 31.133945 -0.008754 1.943204 -16.496054 -1.190079 
0.949993 46.378815 0.506188 -0.000000 -0.000010 -0.000000 0.852641 4.833447 -0.110766 -0.303091 2.783167 -1.498955 5.809783 12.398909 -3.193946 1.026956 3.163556 -0.515490 -11.285194 -2.067614 2.969746 -72.693871 15.713433 2.049272 2.776541 1.042507 -8.031852 18.170458 -1.824270 -19.179831 12.201701 -1.630887 -3.321997 68.055008 16.499414 -10.709545 1.489647 0.399974 20.012728 -14.164210 2.380972 16.350122 2.813698 -15.273759 1.285549 -4.534924 32.146622 -0.131561 1.231716 -17.341349 1.330654 -6.471167 -15.362267 -1.967921 4.008695 32.414497 0.039890 1.609178 -17.441370 -0.724940 
0.833119 46.277130 0.654525 -0.000000 -0.000010 -0.000000 1.079271 5.555663 -0.114083 -0.332636 3.456972 -1.835413 8.166572 16.403606 -4.829166 1.861083 4.450785 -0.701117 -15.925967 -3.390068 4.266148 -67.774170 15.634159 2.139749 3.400463 0.930264 -7.562980 19.189318 -0.890479 -22.816578 15.444799 -2.668461 -4.124073 64.970680 16.525023 -12.976387 1.826374 0.104575 23.172653 -17.427454 3.778344 18.097893 3.007121 -15.468730 1.303357 -4.606247 32.976269 -0.107692 1.087338 -17.849888 1.272005 -6.353931 -15.537963 -1.957132 4.090361 33.192852 0.016770 1.437435 -18.093216 -0.815958 
0.698679 46.176983 0.781228 -0.000000 -0.000010 -0.000000 1.384624 6.033404 -0.096501 -0.264292 3.935509 -2.169431 10.377880 19.678894 -6.517274 2.570615 5.541327 -0.892488 -18.857622 -4.603796 5.716170 -63.520985 15.534336 3.770746 1.679856 0.907279 -8.836150 19.210136 0.538523 -25.483166 18.661602 -3.584368 -4.600650 61.309162 16.417221 -14.009866 2.695942 0.258272 24.172220 -20.006214 4.872299 19.755863 3.245733 -15.707101 1.404197 -4.612697 33.860607 -0.171692 0.947593 -18.565855 1.315284 -6.199392 -15.767184 -1.955445 4.154559 34.041679 0.008414 1.159798 -18.713894 -0.864275 
0.565662 46.078518 0.883421 -0.000000 -0.000010 -0.000000 1.739139 6.334992 -0.055238 -0.137097 4.257806 -2.470290 12.315162 22.234007 -8.089541 3.154363 6.386874 -1.053837 -20.434053 -5.625065 7.126419 -60.091969 15.403845 6.169711 -1.398695 1.137913 -11.054266 18.600538 2.180505 -27.329590 21.578142 -4.359183 -4.843767 57.591137 16.227610 -14.138752 3.848350 0.646248 23.711111 -21.912012 5.695559 21.241554 3.452352 -15.917731 1.408626 -4.699449 34.570381 -0.131801 0.818027 -18.939400 1.191276 -6.031165 -15.961586 -1.340260 4.336504 34.702545 -0.089119 1.062551 -19.313551 -1.439471 
0.460321 45.988785 0.960247 -0.000000 -0.000010 -0.000000 2.074125 6.558239 -0.012033 0.019592 4.511717 -2.726151 13.832024 24.178289 -9.408719 3.591016 6.968848 -1.178448 -21.226442 -6.410684 8.210286 -57.589272 15.218168 8.321098 -4.535836 1.645261 -13.141619 17.821711 3.621167 -28.678007 23.793957 -4.989808 -4.963924 54.552673 16.019905 -13.970871 4.958627 1.058591 23.017193 -23.296391 6.280807 22.427158 3.639558 -16.177935 1.454064 -4.746755 35.374580 -0.074121 0.684119 -19.593773 1.093614 -5.918934 -16.214252 -1.974123 4.240505 35.508389 -0.017967 0.801224 -19.693630 -0.949080 
0.402253 45.913288 1.011603 -0.000000 -0.000010 -0.000000 2.340462 6.752225 0.008266 0.166585 4.736314 -2.894614 14.823899 25.603386 -10.360148 3.868947 7.258989 -1.261075 -21.715662 -6.962576 8.765203 -56.060516 15.038003 9.427200 -6.691464 2.095513 -14.299312 17.228401 4.596780 -29.753939 24.621260 -5.441221 -5.084114 52.739510 15.847338 -13.989145 5.794105 1.397888 23.027838 -24.260492 6.678601 23.199783 3.753874 -16.383829 1.479196 -4.827921 35.937969 -0.015231 0.666785 -19.877861 1.094116 -5.864728 -16.430563 -1.989846 4.298088 36.122559 -0.046745 0.752524 -20.102591 -0.977864 
0.384470 45.851482 1.040410 -0.000000 -0.000010 -0.000000 2.538068 6.926856 0.025737 0.303859 4.931572 -2.985055 15.347580 26.503811 -10.925845 4.027243 7.345299 -1.287198 -22.063082 -7.296767 8.872556 -55.368637 14.910978 9.694676 -7.912517 2.359513 -14.745494 16.838680 5.150094 -30.500633 24.583509 -5.768876 -5.229191 52.056240 15.706853 -14.243625 6.318644 1.671220 23.650702 -24.846260 6.905561 23.612352 3.788859 -16.507547 1.480437 -4.851066 36.309200 -0.025574 0.682258 -20.161943 1.082426 -5.847963 -16.565115 -1.397959 4.381901 36.409760 -0.094726 0.854969 -20.265711 -1.471408 
0.393329 45.801281 1.050347 -0.000000 -0.000010 -0.000000 2.676630 7.072430 0.021769 0.431394 5.097506 -2.997314 15.509607 26.877760 -11.142602 4.075762 7.266932 -1.287205 -22.319567 -7.438334 8.704296 -55.277134 14.850234 9.570567 -8.479382 2.482201 -14.882171 16.546595 5.409383 -30.801298 24.552134 -6.012977 -5.373765 52.260475 15.622256 -14.654351 6.608090 1.902477 24.516006 -25.046236 6.989176 23.725174 3.800734 -16.694815 1.502224 -4.902488 36.736336 -0.025064 0.675354 -20.369232 1.047839 -5.882268 -16.734833 -1.474573 4.429924 36.827892 -0.111572 0.767886 -20.607067 -1.441004 
0.415191 45.760582 1.045093 -0.000000 -0.000010 -0.000000 2.746038 7.159827 0.028577 0.529511 5.185325 -2.958014 15.446809 26.664919 -11.053362 4.044837 7.111331 -1.273046 -22.516899 -7.433710 8.430934 -55.579109 14.881645 9.511290 -8.652115 2.556782 -15.083613 16.304491 5.495688 -30.591692 24.526653 -6.167806 -5.544306 53.101170 15.617239 -15.172454 6.722741 2.100426 25.273558 -24.894960 6.925665 23.628092 3.775084 -16.849539 1.523429 -4.908728 37.020439 -0.050393 0.765296 -20.644728 1.178276 -5.937335 -16.868763 -1.414991 4.532125 37.112541 -0.147417 0.728296 -20.777905 -1.548894 
